<svg width="26" height="30" viewBox="0 0 26 30" fill="none" xmlns="http://www.w3.org/2000/svg">
<path d="M20.4286 13.9286V15.7857C20.4286 16.1688 20.1152 16.4821 19.7321 16.4821H14.625V21.5893C14.625 21.9723 14.3116 22.2857 13.9286 22.2857H12.0714C11.6884 22.2857 11.375 21.9723 11.375 21.5893V16.4821H6.26786C5.88482 16.4821 5.57143 16.1688 5.57143 15.7857V13.9286C5.57143 13.5455 5.88482 13.2321 6.26786 13.2321H11.375V8.125C11.375 7.74197 11.6884 7.42858 12.0714 7.42858H13.9286C14.3116 7.42858 14.625 7.74197 14.625 8.125V13.2321H19.7321C20.1152 13.2321 20.4286 13.5455 20.4286 13.9286ZM26 4.64286V25.0714C26 26.6094 24.7522 27.8571 23.2143 27.8571H2.78571C1.24777 27.8571 0 26.6094 0 25.0714V4.64286C0 3.10491 1.24777 1.85715 2.78571 1.85715H23.2143C24.7522 1.85715 26 3.10491 26 4.64286ZM23.2143 24.7232V4.99108C23.2143 4.79956 23.0576 4.64286 22.8661 4.64286H3.13393C2.94241 4.64286 2.78571 4.79956 2.78571 4.99108V24.7232C2.78571 24.9147 2.94241 25.0714 3.13393 25.0714H22.8661C23.0576 25.0714 23.2143 24.9147 23.2143 24.7232Z" fill="#FBF2F2"/>
</svg>