<svg width="32" height="36" viewBox="0 0 32 36" fill="none" xmlns="http://www.w3.org/2000/svg">
<g clip-path="url(#clip0_4_44)">
<path d="M28.125 4.5H24.75V0.84375C24.75 0.377789 24.3722 0 23.9062 0H21.0938C20.6278 0 20.25 0.377789 20.25 0.84375V4.5H11.25V0.84375C11.25 0.377789 10.8722 0 10.4062 0H7.59375C7.12779 0 6.75 0.377789 6.75 0.84375V4.5H3.375C1.51102 4.5 0 6.01102 0 7.875V32.625C0 34.489 1.51102 36 3.375 36H28.125C29.989 36 31.5 34.489 31.5 32.625V7.875C31.5 6.01102 29.989 4.5 28.125 4.5ZM27.7031 32.625H3.79688C3.68499 32.625 3.57768 32.5806 3.49856 32.5014C3.41945 32.4223 3.375 32.315 3.375 32.2031V11.25H28.125V32.2031C28.125 32.315 28.0806 32.4223 28.0014 32.5014C27.9223 32.5806 27.815 32.625 27.7031 32.625ZM23.9872 18.5168L13.9811 28.4427C13.6503 28.7709 13.116 28.7688 12.7878 28.438L7.50797 23.1154C7.17982 22.7846 7.18193 22.2503 7.51275 21.9221L9.11018 20.3375C9.441 20.0094 9.97523 20.0115 10.3034 20.3424L13.4044 23.4686L21.2142 15.7215C21.545 15.3933 22.0792 15.3954 22.4075 15.7262L23.992 17.3236C24.3202 17.6544 24.318 18.1886 23.9872 18.5168Z" fill="#5627DA"/>
</g>
<defs>
<clipPath id="clip0_4_44">
<rect width="31.5" height="36" fill="white"/>
</clipPath>
</defs>
</svg>