<svg width="24" height="27" viewBox="0 0 24 27" fill="none" xmlns="http://www.w3.org/2000/svg">
<path d="M22.7057 1.70854H16.5985L16.1201 0.75684C16.0188 0.553378 15.8627 0.382229 15.6694 0.262649C15.4761 0.143069 15.2533 0.079802 15.026 0.079965H9.2089C8.98211 0.0790932 8.75966 0.142125 8.56704 0.261838C8.37442 0.381551 8.21942 0.553103 8.11979 0.75684L7.6414 1.70854H1.53426C1.31829 1.70854 1.11118 1.79433 0.958469 1.94704C0.805761 2.09974 0.719971 2.30686 0.719971 2.52282L0.719971 4.15139C0.719971 4.36736 0.805761 4.57447 0.958469 4.72718C1.11118 4.87989 1.31829 4.96568 1.53426 4.96568H22.7057C22.9216 4.96568 23.1288 4.87989 23.2815 4.72718C23.4342 4.57447 23.52 4.36736 23.52 4.15139V2.52282C23.52 2.30686 23.4342 2.09974 23.2815 1.94704C23.1288 1.79433 22.9216 1.70854 22.7057 1.70854ZM3.42747 23.8469C3.46631 24.4671 3.74003 25.0492 4.19293 25.4747C4.64582 25.9001 5.24384 26.137 5.86524 26.1371H18.3747C18.9961 26.137 19.5941 25.9001 20.047 25.4747C20.4999 25.0492 20.7736 24.4671 20.8125 23.8469L21.8914 6.59425H2.34854L3.42747 23.8469Z" fill="#FBF2F2"/>
</svg>