<svg width="30" height="27" viewBox="0 0 30 27" fill="none" xmlns="http://www.w3.org/2000/svg">
<g clip-path="url(#clip0_4_30)">
<path d="M20.9688 4.33334L25.6667 9.03126C25.8646 9.22917 25.8646 9.55209 25.6667 9.75001L14.2917 21.125L9.45833 21.6615C8.8125 21.7344 8.26562 21.1875 8.33854 20.5417L8.875 15.7083L20.25 4.33334C20.4479 4.13543 20.7708 4.13543 20.9688 4.33334ZM29.4062 3.14063L26.8646 0.598968C26.0729 -0.192698 24.7865 -0.192698 23.9896 0.598968L22.1458 2.44272C21.9479 2.64063 21.9479 2.96355 22.1458 3.16147L26.8438 7.85938C27.0417 8.0573 27.3646 8.0573 27.5625 7.85938L29.4062 6.01563C30.1979 5.21876 30.1979 3.9323 29.4062 3.14063ZM20 18.0313V23.3333H3.33333V6.66668H15.3021C15.4687 6.66668 15.625 6.59897 15.7448 6.48438L17.8281 4.40105C18.224 4.00522 17.9427 3.33334 17.3854 3.33334H2.5C1.11979 3.33334 0 4.45313 0 5.83334V24.1667C0 25.5469 1.11979 26.6667 2.5 26.6667H20.8333C22.2135 26.6667 23.3333 25.5469 23.3333 24.1667V15.9479C23.3333 15.3906 22.6615 15.1146 22.2656 15.5052L20.1823 17.5885C20.0677 17.7083 20 17.8646 20 18.0313Z" fill="#FBF2F2"/>
</g>
<defs>
<clipPath id="clip0_4_30">
<rect width="30" height="26.6667" fill="white"/>
</clipPath>
</defs>
</svg>