<svg width="50" height="40" viewBox="0 0 50 40" fill="none" xmlns="http://www.w3.org/2000/svg">
<path d="M47.6953 26.6641C47.8984 25.5625 47.8984 24.4375 47.6953 23.3359L49.7109 22.1719C49.9453 22.0391 50.0469 21.7656 49.9688 21.5078C49.4453 19.8203 48.5469 18.2891 47.375 17.0234C47.1953 16.8281 46.9062 16.7812 46.6719 16.9141L44.6562 18.0781C43.8047 17.3516 42.8281 16.7891 41.7734 16.4141V14.0859C41.7734 13.8203 41.5859 13.5859 41.3281 13.5312C39.5859 13.1406 37.8125 13.1562 36.1562 13.5312C35.8984 13.5859 35.7109 13.8203 35.7109 14.0859V16.4141C34.6562 16.7891 33.6797 17.3516 32.8281 18.0781L30.8125 16.9141C30.5859 16.7812 30.2891 16.8281 30.1094 17.0234C28.9375 18.2891 28.0391 19.8203 27.5156 21.5078C27.4375 21.7656 27.5469 22.0391 27.7734 22.1719L29.7891 23.3359C29.5859 24.4375 29.5859 25.5625 29.7891 26.6641L27.7734 27.8281C27.5391 27.9609 27.4375 28.2344 27.5156 28.4922C28.0391 30.1797 28.9375 31.7031 30.1094 32.9766C30.2891 33.1719 30.5781 33.2187 30.8125 33.0859L32.8281 31.9219C33.6797 32.6484 34.6562 33.2109 35.7109 33.5859V35.9141C35.7109 36.1797 35.8984 36.4141 36.1562 36.4687C37.8984 36.8594 39.6719 36.8437 41.3281 36.4687C41.5859 36.4141 41.7734 36.1797 41.7734 35.9141V33.5859C42.8281 33.2109 43.8047 32.6484 44.6562 31.9219L46.6719 33.0859C46.8984 33.2187 47.1953 33.1719 47.375 32.9766C48.5469 31.7109 49.4453 30.1797 49.9688 28.4922C50.0469 28.2344 49.9375 27.9609 49.7109 27.8281L47.6953 26.6641ZM38.75 28.7891C36.6562 28.7891 34.9609 27.0859 34.9609 25C34.9609 22.9141 36.6641 21.2109 38.75 21.2109C40.8359 21.2109 42.5391 22.9141 42.5391 25C42.5391 27.0859 40.8438 28.7891 38.75 28.7891ZM7.5 17.5C10.2578 17.5 12.5 15.2578 12.5 12.5C12.5 9.74219 10.2578 7.5 7.5 7.5C4.74219 7.5 2.5 9.74219 2.5 12.5C2.5 15.2578 4.74219 17.5 7.5 17.5ZM25 20C25.1484 20 25.2891 19.9609 25.4375 19.9531C26.0859 18.2578 27.0391 16.6641 28.2734 15.3281C28.8516 14.7031 29.6719 14.3437 30.5312 14.3437C31.0703 14.3437 31.6016 14.4844 32.0625 14.7578L32.6797 15.1172C32.7422 15.0781 32.8047 15.0469 32.8672 15.0078C33.4141 13.8672 33.7422 12.6016 33.7422 11.2578C33.7422 6.42187 29.8281 2.50781 24.9922 2.50781C20.1562 2.50781 16.25 6.41406 16.25 11.25C16.25 16.0859 20.1641 20 25 20ZM33.2188 35.1953C33.0391 35.1016 32.8594 34.9922 32.6875 34.8906C32.0469 35.2656 31.4922 35.6562 30.5391 35.6562C29.6875 35.6562 28.8672 35.2969 28.2812 34.6719C26.8516 33.125 25.7578 31.2422 25.1406 29.2344C24.3047 26.5391 27.0859 25.3516 27.1562 25.3047C27.1484 25.1016 27.1484 24.8984 27.1562 24.6953L26.5391 24.3359C26.2422 24.1641 25.9922 23.9453 25.7734 23.7031C25.5156 23.7187 25.2656 23.75 25.0078 23.75C23.0859 23.75 21.2891 23.2812 19.6562 22.5H19.0078C14.0312 22.5 10 26.5312 10 31.5V33.75C10 35.8203 11.6797 37.5 13.75 37.5H33.7031C33.4141 37.0312 33.2188 36.5 33.2188 35.9141V35.1953ZM13.5234 21.4531C12.6172 20.5547 11.375 20 10 20H5C2.24219 20 0 22.2422 0 25V27.5C0 28.8828 1.11719 30 2.5 30H7.64844C8.14062 26.2969 10.375 23.1797 13.5234 21.4531Z" fill="#FBF2F2" fill-opacity="0.8"/>
</svg>