<svg width="30" height="35" viewBox="0 0 30 35" fill="none" xmlns="http://www.w3.org/2000/svg">
<g clip-path="url(#clip0_4_6)">
<path d="M21.3884 21.4688L15 27.8571L8.61161 21.4688C3.82366 21.6763 0 25.5938 0 30.4286V31.0714C0 32.846 1.43973 34.2857 3.21429 34.2857H26.7857C28.5603 34.2857 30 32.846 30 31.0714V30.4286C30 25.5938 26.1763 21.6763 21.3884 21.4688ZM0.910714 5.34375L1.33929 5.44419V9.35491C0.870536 9.63616 0.535714 10.125 0.535714 10.7143C0.535714 11.2768 0.84375 11.7455 1.27902 12.0335L0.234375 16.2054C0.120536 16.6674 0.375 17.1429 0.743304 17.1429H3.54241C3.91071 17.1429 4.16518 16.6674 4.05134 16.2054L3.0067 12.0335C3.44196 11.7455 3.75 11.2768 3.75 10.7143C3.75 10.125 3.41518 9.63616 2.94643 9.35491V5.83259L7.36607 6.89732C6.79018 8.04911 6.42857 9.33482 6.42857 10.7143C6.42857 15.4487 10.2656 19.2857 15 19.2857C19.7344 19.2857 23.5714 15.4487 23.5714 10.7143C23.5714 9.33482 23.2165 8.04911 22.6339 6.89732L29.0826 5.34375C30.3013 5.0491 30.3013 3.52901 29.0826 3.23437L16.3326 0.154014C15.4621 -0.0535758 14.5446 -0.0535758 13.6741 0.154014L0.910714 3.22768C-0.301339 3.52232 -0.301339 5.0491 0.910714 5.34375Z" fill="#FBF2F2" fill-opacity="0.8"/>
</g>
<defs>
<clipPath id="clip0_4_6">
<rect width="30" height="34.2857" fill="white"/>
</clipPath>
</defs>
</svg>